<?xml version="1.0" encoding="UTF-8"?>
<svg version="1.1" xmlns="http://www.w3.org/2000/svg" width="257" height="240">
<path d="M0 0 C8.95721212 2.4318223 14.2959887 6.70952323 19.27734375 14.453125 C24.38244355 24.66332461 23.8376919 40.45999355 20.71484375 51.203125 C18.9235431 56.03934454 16.82688836 60.68585482 14.625 65.34375 C14.30213013 66.03098145 13.97926025 66.71821289 13.64660645 67.42626953 C12.85866479 69.10274113 12.0682601 70.77805473 11.27734375 72.453125 C13.25142212 72.46714355 13.25142212 72.46714355 15.26538086 72.48144531 C20.18026725 72.52152489 25.09453948 72.58733336 30.0090332 72.66064453 C32.13004628 72.68875026 34.25116207 72.71001616 36.37231445 72.72412109 C39.43363641 72.74569489 42.49373683 72.7924192 45.5546875 72.84375 C46.492556 72.84497864 47.4304245 72.84620728 48.39671326 72.84747314 C57.02131109 73.03638119 64.3158159 75.71722248 70.70703125 81.6328125 C76.11478877 87.90150654 78.49502463 95.24527553 78.27734375 103.453125 C77.78877014 109.01600701 76.52074314 113.31847502 73.58984375 118.078125 C71.27579188 121.93487812 70.98129973 124.0776563 71.8671875 128.4296875 C73.35238997 135.75668635 71.98401709 142.57469826 69.27734375 149.453125 C68.61734375 150.443125 67.95734375 151.433125 67.27734375 152.453125 C67.21194415 154.63974641 67.24627811 156.83002766 67.33984375 159.015625 C67.43481151 166.69218541 66.90440075 173.60552834 61.71484375 179.578125 C58.87466115 183.12624629 58.67982964 186.8855723 58.27734375 191.265625 C57.22690877 202.08956467 54.00036578 208.86634107 45.55078125 215.828125 C38.50783747 220.86225664 31.25171213 221.60900057 22.77734375 221.69140625 C21.54211723 221.7065049 21.54211723 221.7065049 20.28193665 221.72190857 C-6.45765419 221.9809702 -28.19921466 218.3439447 -53.49487305 209.78222656 C-55.02903282 209.26467359 -56.56329209 208.74741548 -58.09765625 208.23046875 C-58.83913406 207.97939362 -59.58061188 207.72831848 -60.34455872 207.46963501 C-65.83092048 205.6497616 -71.31747881 204.3543605 -77.0234375 203.38891602 C-80.768011 202.0907114 -82.27886735 200.59273053 -84.72265625 197.453125 C-85.4523283 194.23040753 -85.39610666 191.07825679 -85.35375977 187.78515625 C-85.36091507 186.81710052 -85.36807037 185.8490448 -85.3754425 184.85165405 C-85.39233339 181.65582912 -85.37292387 178.46140614 -85.3515625 175.265625 C-85.35239116 173.04272343 -85.35485042 170.81982192 -85.35887146 168.59692383 C-85.36172974 163.93975363 -85.34702468 159.28306428 -85.31958008 154.62597656 C-85.2854978 148.65699943 -85.29151552 142.68888218 -85.31024265 136.71986389 C-85.32081229 132.13017616 -85.31187503 127.54068843 -85.29685783 122.95101929 C-85.29167533 120.75019932 -85.29215864 118.54935847 -85.29840279 116.34854126 C-85.30385436 113.2722687 -85.28348069 110.19722616 -85.25610352 107.12109375 C-85.26262939 106.2118515 -85.26915527 105.30260925 -85.27587891 104.36581421 C-85.21300302 100.20983511 -85.07598796 98.01687953 -82.82359314 94.4230957 C-80.68206959 92.41506839 -79.08633863 91.45250383 -76.34765625 90.453125 C-68.05448293 87.00889178 -63.62889066 81.10961844 -58.14160156 74.22216797 C-55.32520569 70.71088021 -52.45813091 67.24101061 -49.59765625 63.765625 C-49.02402344 63.0653418 -48.45039062 62.36505859 -47.859375 61.64355469 C-44.96384395 58.12021684 -42.02554275 54.65615027 -38.98828125 51.25390625 C-31.24501654 42.42434068 -28.75353623 32.77104887 -26.63427734 21.45849609 C-25.15056518 13.94879488 -22.54117183 6.97321915 -17.09765625 1.390625 C-11.50855412 -1.81793363 -6.1882058 -1.24296817 0 0 Z " fill="#000000" transform="translate(166.72265625,9.546875)"/>
<path d="M0 0 C1.04647705 -0.00145523 2.0929541 -0.00291046 3.17114258 -0.00440979 C5.38007394 -0.00275239 7.58901704 0.00879097 9.79785156 0.02954102 C13.17563008 0.05849201 16.55183828 0.05014652 19.9296875 0.03710938 C22.07813262 0.04334717 24.22657278 0.05173843 26.375 0.0625 C27.38344971 0.05956436 28.39189941 0.05662872 29.4309082 0.05360413 C38.56304248 0.17624683 38.56304248 0.17624683 42.1875 3.49609375 C44.7055533 8.12410146 44.47672635 12.67012944 44.4621582 17.796875 C44.46726913 18.72591644 44.47238007 19.65495789 44.47764587 20.6121521 C44.49152599 23.67769849 44.4905865 26.74301971 44.48828125 29.80859375 C44.49216859 31.941814 44.49650334 34.07503348 44.50126648 36.20825195 C44.50872496 40.67694611 44.50843975 45.14556126 44.50317383 49.61425781 C44.4973749 55.34095086 44.51432237 61.06732094 44.5375185 66.79396057 C44.55224768 71.19830211 44.55312873 75.60256568 44.55000877 80.00692749 C44.55052224 82.11844524 44.55576464 84.22996732 44.56582069 86.34146118 C44.57815394 89.29295891 44.57141231 92.24382492 44.55981445 95.1953125 C44.57128006 96.50307144 44.57128006 96.50307144 44.58297729 97.83724976 C44.54209703 102.54291183 44.28938657 105.71252839 41.1875 109.49609375 C38.29857557 112.22690438 36.36378373 112.87582893 32.42236328 112.91601562 C31.48103546 112.93192749 30.53970764 112.94783936 29.56985474 112.9642334 C28.5593808 112.96443481 27.54890686 112.96463623 26.5078125 112.96484375 C25.46229218 112.97245728 24.41677185 112.9800708 23.33956909 112.98791504 C21.12891018 112.99871533 18.91820025 113.00156944 16.70751953 112.99707031 C13.33148658 112.99609921 9.95773536 113.03769835 6.58203125 113.08203125 C4.4322964 113.08723928 2.28255366 113.08992643 0.1328125 113.08984375 C-0.87361298 113.10623901 -1.88003845 113.12263428 -2.91696167 113.13952637 C-7.41474264 113.09535971 -10.79068003 113.0313742 -14.43408203 110.20898438 C-17.53276642 106.67453755 -17.93495362 104.06889699 -17.94621277 99.4801178 C-17.95047775 98.69091446 -17.95474274 97.90171112 -17.95913696 97.08859253 C-17.95868378 96.23185944 -17.95823059 95.37512634 -17.95776367 94.49243164 C-17.96112228 93.58304337 -17.9644809 92.67365509 -17.96794128 91.73670959 C-17.97743992 88.73070917 -17.97939377 85.7247645 -17.98046875 82.71875 C-17.98368179 80.62894162 -17.9870459 78.53913347 -17.99055481 76.44932556 C-17.99654315 72.06883218 -17.99839498 67.68835852 -17.99780273 63.30786133 C-17.99770106 57.6944342 -18.01135988 52.08113341 -18.02857494 46.46773624 C-18.0396916 42.15176309 -18.04172205 37.83582053 -18.04119301 33.51983452 C-18.04237337 31.45018516 -18.0467983 29.38053501 -18.05452538 27.31089973 C-18.06431957 24.4168931 -18.06144954 21.52316143 -18.05541992 18.62915039 C-18.06103943 17.77444153 -18.06665894 16.91973267 -18.07244873 16.03912354 C-18.04317478 10.51147774 -17.57602222 6.56023642 -13.86328125 2.21459961 C-9.31012005 -0.35019726 -5.14209213 -0.05728213 0 0 Z M3.1875 79.49609375 C2.25144787 82.99068837 1.8132461 85.34214423 2.9375 88.80859375 C4.25396448 90.78482302 4.25396448 90.78482302 7.1875 92.49609375 C11.55003463 93.0616075 13.48502588 92.98932026 17.125 90.43359375 C19.42284372 87.60002915 19.42284372 87.60002915 19.8125 83.99609375 C19.02147068 79.56632955 17.82275215 78.10399203 14.1875 75.49609375 C9.20989262 74.56279237 6.54240204 75.75777433 3.1875 79.49609375 Z " fill="#000000" transform="translate(29.8125,100.50390625)"/>
</svg>
